<svg width="16" height="16" viewBox="0 0 16 16" fill="none" xmlns="http://www.w3.org/2000/svg">
<path d="M7.99967 1.33325C4.32634 1.33325 1.33301 4.32659 1.33301 7.99992C1.33301 11.6733 4.32634 14.6666 7.99967 14.6666C11.673 14.6666 14.6663 11.6733 14.6663 7.99992C14.6663 4.32659 11.673 1.33325 7.99967 1.33325ZM10.6663 8.49992H8.49967V10.6666C8.49967 10.9399 8.27301 11.1666 7.99967 11.1666C7.72634 11.1666 7.49967 10.9399 7.49967 10.6666V8.49992H5.33301C5.05967 8.49992 4.83301 8.27325 4.83301 7.99992C4.83301 7.72658 5.05967 7.49992 5.33301 7.49992H7.49967V5.33325C7.49967 5.05992 7.72634 4.83325 7.99967 4.83325C8.27301 4.83325 8.49967 5.05992 8.49967 5.33325V7.49992H10.6663C10.9397 7.49992 11.1663 7.72658 11.1663 7.99992C11.1663 8.27325 10.9397 8.49992 10.6663 8.49992Z" fill="currentColor"/>
</svg>
