<svg width="16" height="16" viewBox="0 0 16 16" fill="none" xmlns="http://www.w3.org/2000/svg">
<path d="M10.793 1.3335H5.20634C2.77967 1.3335 1.33301 2.78016 1.33301 5.20683V10.7868C1.33301 13.2202 2.77967 14.6668 5.20634 14.6668H10.7863C13.213 14.6668 14.6597 13.2202 14.6597 10.7935V5.20683C14.6663 2.78016 13.2197 1.3335 10.793 1.3335ZM10.6663 8.50016H8.49967V10.6668C8.49967 10.9402 8.27301 11.1668 7.99967 11.1668C7.72634 11.1668 7.49967 10.9402 7.49967 10.6668V8.50016H5.33301C5.05967 8.50016 4.83301 8.2735 4.83301 8.00016C4.83301 7.72683 5.05967 7.50016 5.33301 7.50016H7.49967V5.3335C7.49967 5.06016 7.72634 4.8335 7.99967 4.8335C8.27301 4.8335 8.49967 5.06016 8.49967 5.3335V7.50016H10.6663C10.9397 7.50016 11.1663 7.72683 11.1663 8.00016C11.1663 8.2735 10.9397 8.50016 10.6663 8.50016Z" fill="currentColor"/>
</svg>
