<svg width="24" height="24" viewBox="0 0 24 24" fill="none" xmlns="http://www.w3.org/2000/svg">
<path d="M14.1582 5.65808C14.3059 5.5104 14.5545 5.5104 14.7021 5.65808L20.7725 11.7274C20.9201 11.8751 20.9201 12.1247 20.7725 12.2723L14.7021 18.3427C14.6242 18.4205 14.5281 18.4559 14.4297 18.4559C14.3314 18.4558 14.2361 18.4203 14.1582 18.3427C14.0105 18.195 14.0105 17.9454 14.1582 17.7977L19.6982 12.2577L19.9551 11.9999L19.6982 11.7421L14.1582 6.20203C14.0105 6.05435 14.0105 5.80576 14.1582 5.65808Z" stroke="currentColor" stroke-width="1"/>
<path d="M3.5 11.6143H20.3301C20.5388 11.6143 20.7158 11.7913 20.7158 12C20.7158 12.2087 20.5388 12.3857 20.3301 12.3857H3.5C3.29128 12.3857 3.11426 12.2087 3.11426 12C3.11426 11.7913 3.29128 11.6143 3.5 11.6143Z" stroke="currentColor" stroke-width="1"/>
</svg>
