<svg width="95" height="95" viewBox="0 0 95 95" fill="none" xmlns="http://www.w3.org/2000/svg">
<g clip-path="url(#clip0_1503_14385)">
<rect width="95" height="95" rx="47.5" fill="#E7E6EA"/>
<path d="M47.4508 58.9652C59.0324 58.9652 68.4212 49.5765 68.4212 37.9948C68.4212 26.4132 59.0324 17.0245 47.4508 17.0245C35.8692 17.0245 26.4805 26.4132 26.4805 37.9948C26.4805 49.5765 35.8692 58.9652 47.4508 58.9652Z" fill="#B3ACBD"/>
<path d="M47.4483 69.4504C26.436 69.4504 9.32422 83.5425 9.32422 100.906C9.32422 102.08 10.2469 103.003 11.4213 103.003H83.4754C84.6498 103.003 85.5725 102.08 85.5725 100.906C85.5725 83.5425 68.4607 69.4504 47.4483 69.4504Z" fill="#B3ACBD"/>
</g>
<defs>
<clipPath id="clip0_1503_14385">
<rect width="95" height="95" rx="47.5" fill="white"/>
</clipPath>
</defs>
</svg>
