<svg width="2016" height="678" viewBox="0 0 2016 678" fill="none" xmlns="http://www.w3.org/2000/svg">
<path d="M1802.13 529.589H1560.41V439.455L1802.13 103.502H1916.84V439.455H2015.17V529.589H1916.84V677.081H1802.13V529.589ZM1658.73 439.455H1666.35H1802.13V245.809V234.606L1658.73 439.455Z" fill="currentColor"/>
<path d="M1802.13 234.606L1658.73 439.455H1666.35L1802.13 245.809V234.606Z" fill="currentColor"/>
<path d="M1585.42 439.453V529.587H1192.11V492.714C1192.11 296.059 1470.7 328.835 1470.7 238.701C1470.7 197.731 1437.93 177.246 1388.76 177.246C1339.6 177.246 1306.82 205.925 1306.82 259.186V271.477H1192.11V259.186C1192.11 152.664 1274.05 91.209 1392.86 91.209C1503.48 91.209 1585.42 144.47 1585.42 238.701C1585.42 386.192 1372.37 373.902 1323.21 439.453H1585.42Z" fill="currentColor"/>
<path d="M798.793 390.289H909.412C909.412 390.289 909.412 464.035 999.546 464.035C1061 464.035 1077.39 435.356 1077.39 410.774C1077.39 320.641 806.987 390.289 806.987 226.41C806.987 152.664 876.636 91.209 991.352 91.209C1155.23 91.209 1179.81 185.44 1179.81 226.41H1069.19C1069.19 226.41 1069.19 169.052 991.352 169.052C946.285 169.052 921.703 191.995 921.703 218.216C921.703 291.962 1192.1 238.701 1192.1 398.483C1192.1 480.423 1122.46 541.878 999.546 541.878C831.569 541.878 798.793 439.453 798.793 390.289Z" fill="currentColor"/>
<path d="M433 40H581.744V188.744" stroke="#A357FF" stroke-width="80"/>
<path d="M309.04 0V633.547M0 315.314H622.432M94.3079 97.8057L531.026 537.201M310.441 315.264L88.5044 537.201" stroke="currentColor" stroke-width="96"/>
</svg>
