<svg width="38" height="38" viewBox="0 0 38 38" fill="none" xmlns="http://www.w3.org/2000/svg">
<path d="M11.2929 12.9495L24.5512 26.2078C25.0042 26.6608 25.7555 26.6608 26.2085 26.2078C26.6615 25.7548 26.6615 25.0035 26.2085 24.5505L12.9502 11.2923C12.4972 10.8393 11.7459 10.8393 11.2929 11.2923C10.8399 11.7453 10.8399 12.4966 11.2929 12.9495Z" fill="currentColor"/>
<path d="M11.2929 26.2077C11.7459 26.6607 12.4972 26.6607 12.9502 26.2077L26.2085 12.9495C26.6615 12.4965 26.6615 11.7452 26.2085 11.2922C25.7555 10.8392 25.0042 10.8392 24.5512 11.2922L11.2929 24.5505C10.84 25.0035 10.84 25.7548 11.2929 26.2077Z" fill="currentColor"/>
</svg>
