<svg width="24" height="24" viewBox="0 0 24 24" fill="none" xmlns="http://www.w3.org/2000/svg">
<path d="M21.25 9.14993C18.94 5.51993 15.56 3.42993 12 3.42993C10.22 3.42993 8.49 3.94993 6.91 4.91993C5.33 5.89993 3.91 7.32993 2.75 9.14993C1.75 10.7199 1.75 13.2699 2.75 14.8399C5.06 18.4799 8.44 20.5599 12 20.5599C13.78 20.5599 15.51 20.0399 17.09 19.0699C18.67 18.0899 20.09 16.6599 21.25 14.8399C22.25 13.2799 22.25 10.7199 21.25 9.14993ZM12 16.0399C9.76 16.0399 7.96 14.2299 7.96 11.9999C7.96 9.76993 9.76 7.95993 12 7.95993C14.24 7.95993 16.04 9.76993 16.04 11.9999C16.04 14.2299 14.24 16.0399 12 16.0399Z" fill="currentColor"/>
<path d="M12 10.4153C12.8655 10.4153 13.585 11.1347 13.585 12.0002C13.5848 12.8598 12.8712 13.5745 12 13.5745C11.1348 13.5742 10.426 12.8655 10.4258 12.0002C10.4258 11.1219 11.1375 10.4155 12 10.4153Z" fill="currentColor" stroke="currentColor" stroke-width="2.55109"/>
</svg>
