<svg width="30" height="30" viewBox="0 0 30 30" fill="none" xmlns="http://www.w3.org/2000/svg">
<path opacity="0.4" d="M27.5 9.7625L27.5 17.375L25.4625 15.625C24.4875 14.7875 22.9125 14.7875 21.9375 15.625L16.7375 20.0875C15.7625 20.925 14.1875 20.925 13.2125 20.0875L12.7875 19.7375C11.9 18.9625 10.4875 18.8875 9.4875 19.5625L3.3375 23.6875L3.2 23.7875C2.7375 22.7875 2.5 21.6 2.5 20.2375L2.5 9.7625C2.5 5.2125 5.2125 2.5 9.7625 2.5L20.2375 2.5C24.7875 2.5 27.5 5.2125 27.5 9.7625Z" fill="#B3ACBD"/>
<path d="M11.2484 12.975C12.8915 12.975 14.2234 11.6431 14.2234 10C14.2234 8.35698 12.8915 7.02502 11.2484 7.02502C9.60539 7.02502 8.27344 8.35698 8.27344 10C8.27344 11.6431 9.60539 12.975 11.2484 12.975Z" fill="#B3ACBD"/>
<path d="M27.4992 17.375V20.2375C27.4992 24.7875 24.7867 27.5 20.2367 27.5L9.76172 27.5C6.57422 27.5 4.27422 26.1625 3.19922 23.7875L3.33672 23.6875L9.48672 19.5625C10.4867 18.8875 11.8992 18.9625 12.7867 19.7375L13.2117 20.0875C14.1867 20.925 15.7617 20.925 16.7367 20.0875L21.9367 15.625C22.9117 14.7875 24.4867 14.7875 25.4617 15.625L27.4992 17.375Z" fill="#928C9E"/>
</svg>
