<svg xmlns="http://www.w3.org/2000/svg" width="16" height="16" viewBox="0 0 16 16" fill="none">
  <path d="M14 14.6667H2C1.72667 14.6667 1.5 14.44 1.5 14.1667C1.5 13.8933 1.72667 13.6667 2 13.6667H14C14.2733 13.6667 14.5 13.8933 14.5 14.1667C14.5 14.44 14.2733 14.6667 14 14.6667Z" fill="#292D32"/>
  <path d="M12.6804 2.32C11.387 1.02667 10.1204 0.993336 8.79371 2.32L7.98704 3.12667C7.92037 3.19334 7.89371 3.3 7.92038 3.39334C8.42704 5.16 9.84038 6.57334 11.607 7.08C11.6337 7.08667 11.6604 7.09334 11.687 7.09334C11.7604 7.09334 11.827 7.06667 11.8804 7.01334L12.6804 6.20667C13.3404 5.55334 13.6604 4.92 13.6604 4.28C13.667 3.62 13.347 2.98 12.6804 2.32Z" fill="#141414"/>
  <path d="M10.4075 7.68666C10.2142 7.59332 10.0275 7.49999 9.84753 7.39333C9.70086 7.30666 9.56086 7.21333 9.42086 7.11333C9.30753 7.03999 9.1742 6.93332 9.04753 6.82666C9.0342 6.81999 8.98753 6.77999 8.9342 6.72666C8.7142 6.53999 8.46753 6.29999 8.24753 6.03333C8.22753 6.01999 8.1942 5.97333 8.14753 5.91333C8.08086 5.83333 7.96753 5.69999 7.86753 5.54666C7.78753 5.44666 7.6942 5.29999 7.60753 5.15333C7.50086 4.97333 7.40753 4.79332 7.3142 4.60666C7.19183 4.34443 6.84766 4.26653 6.64304 4.47115L2.8942 8.21999C2.80753 8.30666 2.72753 8.47333 2.70753 8.58666L2.34753 11.14C2.28086 11.5933 2.40753 12.02 2.68753 12.3067C2.92753 12.54 3.26086 12.6667 3.62086 12.6667C3.70086 12.6667 3.78086 12.66 3.86086 12.6467L6.42086 12.2867C6.54086 12.2667 6.70753 12.1867 6.78753 12.1L10.5426 8.34497C10.7431 8.14444 10.6677 7.79942 10.4075 7.68666Z" fill="#292D32"/>
</svg>