<svg xmlns="http://www.w3.org/2000/svg" width="16" height="16" viewBox="0 0 16 16" fill="none">
  <path d="M10.794 1.33333H5.20732C2.78065 1.33333 1.33398 2.77999 1.33398 5.20666V10.7867C1.33398 13.22 2.78065 14.6667 5.20732 14.6667H10.7873C13.214 14.6667 14.6607 13.22 14.6607 10.7933V5.20666C14.6673 2.77999 13.2207 1.33333 10.794 1.33333ZM11.5007 8.21999C11.5007 8.49333 11.274 8.71999 11.0007 8.71999C10.7273 8.71999 10.5007 8.49333 10.5007 8.21999V6.20666L5.35398 11.3533C5.25398 11.4533 5.12732 11.5 5.00065 11.5C4.87398 11.5 4.74732 11.4533 4.64732 11.3533C4.45398 11.16 4.45398 10.84 4.64732 10.6467L9.79398 5.49999H7.78065C7.50732 5.49999 7.28065 5.27333 7.28065 4.99999C7.28065 4.72666 7.50732 4.49999 7.78065 4.49999H11.0007C11.274 4.49999 11.5007 4.72666 11.5007 4.99999V8.21999Z" fill="currentColor"/>
</svg>