<svg width="24" height="24" viewBox="0 0 24 24" fill="none" xmlns="http://www.w3.org/2000/svg">
<rect width="24" height="24" rx="12" fill="var(--icon-bg, var(--color-purple))"/>
<path d="M17.886 7.164C17.1 9.126 15.306 11.688 13.596 13.362C13.35 11.814 12.114 10.602 10.554 10.386C12.234 8.67 14.814 6.852 16.782 6.06C17.13 5.928 17.478 6.03 17.694 6.246C17.922 6.474 18.03 6.816 17.886 7.164Z" fill="var(--icon-fg, var(--color-white))"/>
<path d="M13.0681 13.854C12.9481 13.956 12.8281 14.058 12.7081 14.154L11.6341 15.012C11.6341 14.994 11.6281 14.97 11.6281 14.946C11.5441 14.304 11.2441 13.71 10.7581 13.224C10.2661 12.732 9.65412 12.432 8.98212 12.348C8.96412 12.348 8.94012 12.342 8.92212 12.342L9.79212 11.244C9.87612 11.136 9.96612 11.034 10.0621 10.926L10.4701 10.98C11.7601 11.16 12.7981 12.174 13.0021 13.458L13.0681 13.854Z" fill="var(--icon-fg, var(--color-white))"/>
<path d="M11.058 15.372C11.058 16.032 10.806 16.662 10.326 17.136C9.96001 17.508 9.46801 17.76 8.86801 17.832L7.39801 17.994C6.59401 18.084 5.90401 17.394 5.99401 16.584L6.15601 15.108C6.30001 13.794 7.39801 12.954 8.56201 12.93C8.67601 12.924 8.80201 12.93 8.92201 12.942C9.43201 13.008 9.92401 13.242 10.338 13.65C10.74 14.052 10.968 14.526 11.034 15.024C11.046 15.144 11.058 15.258 11.058 15.372Z" fill="var(--icon-fg, var(--color-white))"/>
</svg>
