<svg width="24" height="24" viewBox="0 0 24 24" fill="none" xmlns="http://www.w3.org/2000/svg">
<rect width="24" height="24" rx="12" fill="var(--icon-bg, var(--color-purple))"/>
<path d="M13.2582 6.81088L14.2853 8.82725C14.4254 9.10796 14.7954 9.37545 15.1063 9.42488L16.9428 9.7159C18.1172 9.90262 18.3995 10.7515 17.5606 11.5973L16.1453 13.034C15.9056 13.2773 15.7769 13.744 15.8541 14.0769L16.2755 15.8391C16.608 17.2339 15.8703 17.7799 14.6286 17.0589L12.9018 16.0541C12.5899 15.8724 12.0782 15.8762 11.7633 16.0626L10.0518 17.0932C8.82676 17.8326 8.07519 17.292 8.38677 15.8981L8.7818 14.1298C8.85405 13.7958 8.71832 13.331 8.47502 13.0913L7.03839 11.6761C6.19264 10.8429 6.45651 9.98986 7.62802 9.78559L9.45993 9.46712C9.76429 9.4131 10.1303 9.1401 10.2661 8.85733L11.263 6.82581C11.8067 5.72346 12.7037 5.71675 13.2582 6.81088Z" fill="var(--icon-fg, var(--color-white))" stroke="var(--icon-fg, var(--color-white))" stroke-width="0.655994" stroke-linecap="round" stroke-linejoin="round"/>
</svg>
