<svg width="35" height="35" viewBox="0 0 35 35" fill="none" xmlns="http://www.w3.org/2000/svg">
<path d="M18.7978 8.575H7.45192C4.95817 8.575 2.9165 10.6167 2.9165 13.1104V29.6771C2.9165 31.7917 4.43317 32.6958 6.28525 31.6604L12.0165 28.4667C12.629 28.1312 13.6207 28.1312 14.2186 28.4667L19.9498 31.6604C21.8165 32.6812 23.3332 31.7917 23.3332 29.6771V13.1104C23.3332 10.6167 21.2915 8.575 18.7978 8.575Z" fill="currentColor"/>
<path d="M32.0835 7.45209V24.0188C32.0835 26.1333 30.5668 27.0229 28.7148 26.0021L25.9002 24.4271C25.6668 24.2958 25.521 24.0479 25.521 23.7854V13.1104C25.521 9.40625 22.5023 6.38751 18.7981 6.38751H12.8627C12.3231 6.38751 11.9439 5.81876 12.1918 5.35209C12.9502 3.90834 14.4668 2.91667 16.2023 2.91667H27.5481C30.0418 2.91667 32.0835 4.95834 32.0835 7.45209Z" fill="currentColor"/>
</svg>
