<svg width="35" height="35" viewBox="0 0 35 35" fill="none" xmlns="http://www.w3.org/2000/svg">
<path d="M24.5 2.91667H20.7083C16.0417 2.91667 13.125 5.83333 13.125 10.5V16.4062H22.2396C22.8375 16.4062 23.3333 16.9021 23.3333 17.5C23.3333 18.0979 22.8375 18.5937 22.2396 18.5937H13.125V24.5C13.125 29.1667 16.0417 32.0833 20.7083 32.0833H24.4854C29.1521 32.0833 32.0688 29.1667 32.0688 24.5V10.5C32.0833 5.83333 29.1667 2.91667 24.5 2.91667Z" fill="currentColor"/>
<path d="M6.6501 16.4062L9.66885 13.3875C9.8876 13.1688 9.98968 12.8917 9.98968 12.6146C9.98968 12.3375 9.8876 12.0458 9.66885 11.8417C9.24593 11.4187 8.54593 11.4187 8.12301 11.8417L3.2376 16.7271C2.81468 17.15 2.81468 17.85 3.2376 18.2729L8.12301 23.1583C8.54593 23.5813 9.24593 23.5813 9.66885 23.1583C10.0918 22.7354 10.0918 22.0354 9.66885 21.6125L6.6501 18.5938H13.1251V16.4062H6.6501Z" fill="currentColor"/>
</svg>
