<svg width="35" height="35" viewBox="0 0 35 35" fill="none" xmlns="http://www.w3.org/2000/svg">
<path d="M17.5291 4.24375C12.702 4.24375 8.77911 8.16667 8.77911 12.9938V17.2083C8.77911 18.0979 8.39994 19.4542 7.94786 20.2125L6.27078 22.9979C5.23536 24.7188 5.94995 26.6292 7.84578 27.2708C14.1312 29.3708 20.9124 29.3708 27.1979 27.2708C28.9624 26.6875 29.7354 24.6021 28.7729 22.9979L27.0958 20.2125C26.6583 19.4542 26.2791 18.0979 26.2791 17.2083V12.9938C26.2791 8.18125 22.3416 4.24375 17.5291 4.24375Z" fill="currentColor"/>
<path d="M20.2269 4.66667C19.7748 4.53542 19.3081 4.43334 18.8269 4.375C17.4269 4.2 16.0852 4.30209 14.8311 4.66667C15.254 3.5875 16.304 2.82917 17.529 2.82917C18.754 2.82917 19.804 3.5875 20.2269 4.66667Z" fill="currentColor"/>
<path d="M21.9043 27.7958C21.9043 30.2021 19.9355 32.1708 17.5293 32.1708C16.3335 32.1708 15.2251 31.675 14.4376 30.8875C13.6501 30.1 13.1543 28.9917 13.1543 27.7958" fill="currentColor"/>
</svg>
