<svg width="35" height="35" viewBox="0 0 35 35" fill="none" xmlns="http://www.w3.org/2000/svg">
<path d="M17.4998 2.91667C13.679 2.91667 10.5728 6.02292 10.5728 9.84376C10.5728 13.5917 13.504 16.625 17.3248 16.7563C17.4415 16.7417 17.5582 16.7417 17.6457 16.7563C17.6748 16.7563 17.6894 16.7563 17.7186 16.7563C17.7332 16.7563 17.7332 16.7563 17.7478 16.7563C21.4811 16.625 24.4123 13.5917 24.4269 9.84376C24.4269 6.02292 21.3207 2.91667 17.4998 2.91667Z" fill="currentColor"/>
<path d="M24.9084 20.6354C20.8396 17.9229 14.2042 17.9229 10.1063 20.6354C8.25423 21.875 7.2334 23.5521 7.2334 25.3458C7.2334 27.1396 8.25423 28.8021 10.0917 30.0271C12.1334 31.3979 14.8167 32.0833 17.5001 32.0833C20.1834 32.0833 22.8667 31.3979 24.9084 30.0271C26.7459 28.7875 27.7667 27.125 27.7667 25.3167C27.7521 23.5229 26.7459 21.8604 24.9084 20.6354Z" fill="currentColor"/>
</svg>
