<svg width="35" height="35" viewBox="0 0 35 35" fill="none" xmlns="http://www.w3.org/2000/svg">
<path d="M29.3123 13.4458C26.6728 13.4458 25.5936 11.5792 26.9061 9.28958C27.6644 7.9625 27.2123 6.27083 25.8853 5.5125L23.3623 4.06875C22.2103 3.38333 20.7228 3.79167 20.0373 4.94375L19.8769 5.22083C18.5644 7.51042 16.4061 7.51042 15.079 5.22083L14.9186 4.94375C14.2623 3.79167 12.7748 3.38333 11.6228 4.06875L9.09984 5.5125C7.77275 6.27083 7.32067 7.97708 8.079 9.30417C9.40609 11.5792 8.32692 13.4458 5.68734 13.4458C4.17067 13.4458 2.9165 14.6854 2.9165 16.2167V18.7833C2.9165 20.3 4.15609 21.5542 5.68734 21.5542C8.32692 21.5542 9.40609 23.4208 8.079 25.7104C7.32067 27.0375 7.77275 28.7292 9.09984 29.4875L11.6228 30.9312C12.7748 31.6167 14.2623 31.2083 14.9478 30.0563L15.1082 29.7792C16.4207 27.4896 18.579 27.4896 19.9061 29.7792L20.0665 30.0563C20.7519 31.2083 22.2394 31.6167 23.3915 30.9312L25.9144 29.4875C27.2415 28.7292 27.6936 27.0229 26.9353 25.7104C25.6082 23.4208 26.6873 21.5542 29.3269 21.5542C30.8436 21.5542 32.0978 20.3146 32.0978 18.7833V16.2167C32.0832 14.7 30.8436 13.4458 29.3123 13.4458ZM17.4998 22.2396C14.8894 22.2396 12.7603 20.1104 12.7603 17.5C12.7603 14.8896 14.8894 12.7604 17.4998 12.7604C20.1103 12.7604 22.2394 14.8896 22.2394 17.5C22.2394 20.1104 20.1103 22.2396 17.4998 22.2396Z" fill="currentColor"/>
</svg>
