<svg width="67" height="67" viewBox="0 0 67 67" fill="none" xmlns="http://www.w3.org/2000/svg">
<rect width="67" height="67" rx="33.5" fill="#B3ACBD"/>
<path d="M37.5888 16.7973L40.9971 23.614C41.4619 24.5629 42.7013 25.4731 43.7471 25.6474L49.9247 26.6738C53.8753 27.3322 54.8048 30.1983 51.9581 33.0257L47.1554 37.8284C46.3421 38.6417 45.8966 40.2103 46.1484 41.3336L47.5234 47.2788C48.6078 51.9846 46.1097 53.805 41.9461 51.3456L36.1557 47.9179C35.11 47.2982 33.3865 47.2982 32.3214 47.9179L26.531 51.3456C22.3868 53.805 19.8693 51.9653 20.9537 47.2788L22.3287 41.3336C22.5804 40.2103 22.135 38.6417 21.3217 37.8284L16.519 33.0257C13.6916 30.1983 14.6018 27.3322 18.5524 26.6738L24.73 25.6474C25.7564 25.4731 26.9958 24.5629 27.4606 23.614L30.8689 16.7973C32.728 13.0985 35.7491 13.0985 37.5888 16.7973Z" fill="#E7E6EA"/>
</svg>
