<svg width="67" height="67" viewBox="0 0 67 67" fill="none" xmlns="http://www.w3.org/2000/svg">
<rect width="67" height="67" rx="33.5" fill="#B3ACBD"/>
<path d="M47.7838 21.3289L36.2806 14.6865C34.4022 13.602 32.0783 13.602 30.1805 14.6865L18.6967 21.3289C16.8182 22.4133 15.6562 24.4274 15.6562 26.6157V39.8618C15.6562 42.0307 16.8182 44.0447 18.6967 45.1486L30.1998 51.791C32.0783 52.8755 34.4022 52.8755 36.3 51.791L47.8032 45.1486C49.6816 44.0641 50.8436 42.0501 50.8436 39.8618V26.6157C50.8242 24.4274 49.6623 22.4327 47.7838 21.3289ZM31.7878 25.0083C31.7878 24.2143 32.4462 23.5559 33.2402 23.5559C34.0342 23.5559 34.6926 24.2143 34.6926 25.0083V35.1753C34.6926 35.9693 34.0342 36.6277 33.2402 36.6277C32.4462 36.6277 31.7878 35.9693 31.7878 35.1753V25.0083ZM35.0219 42.205C34.925 42.4374 34.7895 42.6504 34.6152 42.8441C34.2472 43.212 33.7631 43.4057 33.2402 43.4057C32.9885 43.4057 32.7367 43.3476 32.5043 43.2507C32.2526 43.1539 32.0589 43.0184 31.8653 42.8441C31.691 42.6504 31.5554 42.4374 31.4392 42.205C31.3424 41.9726 31.3037 41.7209 31.3037 41.4691C31.3037 40.9656 31.4973 40.4621 31.8653 40.0942C32.0589 39.9199 32.2526 39.7843 32.5043 39.6875C33.2209 39.3776 34.073 39.5519 34.6152 40.0942C34.7895 40.2878 34.925 40.4815 35.0219 40.7332C35.1187 40.9656 35.1768 41.2174 35.1768 41.4691C35.1768 41.7209 35.1187 41.9726 35.0219 42.205Z" fill="#E7E6EA"/>
</svg>
