<svg xmlns="http://www.w3.org/2000/svg" width="16" height="16" viewBox="0 0 16 16" fill="none">
  <path d="M13.793 9.09122C14.2839 9.58632 14.4872 10.0408 14.4873 10.4565C14.4873 10.821 14.3308 11.2155 13.9609 11.641L13.79 11.8246L11.8174 13.7973C11.3377 14.277 10.8768 14.4799 10.459 14.4799C10.0413 14.4798 9.58111 14.2768 9.10156 13.7973L8.7168 13.4125L13.415 8.72208L13.793 9.09122Z" fill="white" stroke="white" stroke-width="0.666667"/>
  <path d="M5.53027 1.50134C5.89787 1.50134 6.29349 1.65769 6.71094 2.02087L6.8916 2.18884L7.26367 2.56482L2.56641 7.26111L2.18945 6.88415C1.70954 6.40086 1.50699 5.9443 1.50684 5.5238C1.50684 5.10317 1.70934 4.64596 2.18945 4.16247L4.16895 2.18982L4.16992 2.18884C4.65376 1.70511 5.11031 1.50141 5.53027 1.50134Z" fill="white" stroke="white" stroke-width="0.666667"/>
  <path d="M13.4365 1.7086C13.6918 1.6144 13.9387 1.69142 14.0898 1.84239C14.2623 2.01487 14.3325 2.25535 14.2314 2.49961L14.2295 2.50254C13.4396 4.47429 11.6968 7.02788 9.95605 8.85118C9.52773 7.48592 8.44103 6.41836 7.06445 6.01329C8.8955 4.26602 11.4618 2.50335 13.4365 1.7086Z" fill="white" stroke="white" stroke-width="0.666667"/>
  <path d="M5.98242 7.16018L6.25586 7.19632C7.54391 7.37683 8.5806 8.39167 8.78418 9.6719V9.67483L8.82617 9.92581C8.74219 9.99665 8.66052 10.0669 8.57812 10.1328L7.81445 10.7432C7.6462 10.1419 7.32075 9.58933 6.85547 9.12405C6.38016 8.64884 5.80977 8.32117 5.18359 8.15432L5.80762 7.36721L5.80957 7.36428C5.86309 7.29548 5.92153 7.23019 5.98242 7.16018Z" fill="white" stroke="white" stroke-width="0.666667"/>
  <path d="M4.54102 9.3774C4.97031 9.43359 5.39049 9.61345 5.7627 9.9272L5.91992 10.0708C6.31534 10.4669 6.53337 10.9261 6.59668 11.4038C6.61 11.5368 6.62011 11.6427 6.62012 11.7465C6.62012 12.3935 6.37408 13.0071 5.90625 13.4692L5.90332 13.4731C5.55099 13.8312 5.07392 14.0777 4.48047 14.1489L2.85059 14.3286H2.84961C2.17023 14.4043 1.58182 13.819 1.6582 13.1303V13.1294L1.83887 11.4897C1.96997 10.2934 2.91359 9.49503 3.97363 9.38033L4.1875 9.36666H4.19824C4.3007 9.36128 4.42025 9.36556 4.54102 9.3774Z" fill="white" stroke="white" stroke-width="0.666667"/>
</svg>
