<svg xmlns="http://www.w3.org/2000/svg" width="21" height="21" viewBox="0 0 21 21" fill="none">
  <path d="M12.0128 3.07116L13.5528 6.15116C13.7628 6.57991 14.3228 6.99116 14.7953 7.06991L17.5866 7.53366C19.3716 7.83116 19.7916 9.12616 18.5053 10.4037L16.3353 12.5737C15.9678 12.9412 15.7666 13.6499 15.8803 14.1574L16.5016 16.8437C16.9916 18.9699 15.8628 19.7924 13.9816 18.6812L11.3653 17.1324C10.8928 16.8524 10.1141 16.8524 9.63282 17.1324L7.01657 18.6812C5.14407 19.7924 4.00657 18.9612 4.49657 16.8437L5.11782 14.1574C5.23157 13.6499 5.03032 12.9412 4.66282 12.5737L2.49282 10.4037C1.21532 9.12616 1.62657 7.83116 3.41157 7.53366L6.20282 7.06991C6.66657 6.99116 7.22657 6.57991 7.43657 6.15116L8.97657 3.07116C9.81657 1.39991 11.1816 1.39991 12.0128 3.07116Z" fill="currentColor"/>
</svg>
