<svg width="25" height="25" viewBox="0 0 25 25" fill="none" xmlns="http://www.w3.org/2000/svg">
<path d="M0 12C0 6.34315 0 3.51472 1.75736 1.75736C3.51472 0 6.34315 0 12 0H13C18.6569 0 21.4853 0 23.2426 1.75736C25 3.51472 25 6.34315 25 12V13C25 18.6569 25 21.4853 23.2426 23.2426C21.4853 25 18.6569 25 13 25H12C6.34315 25 3.51472 25 1.75736 23.2426C0 21.4853 0 18.6569 0 13V12Z" fill="#0077FF"/>
<path d="M13.3021 18.0105C7.60417 18.0105 4.3542 14.1042 4.21879 7.60422H7.07294C7.16669 12.3751 9.27082 14.3959 10.9375 14.8125V7.60422H13.6251V11.7188C15.2709 11.5417 16.9999 9.66672 17.5832 7.60422H20.2708C19.8229 10.1459 17.9479 12.0209 16.6145 12.7917C17.9479 13.4167 20.0834 15.0521 20.8959 18.0105H17.9375C17.302 16.0313 15.7188 14.5 13.6251 14.2917V18.0105H13.3021Z" fill="white"/>
</svg>
