<svg width="30" height="30" viewBox="0 0 30 30" fill="none" xmlns="http://www.w3.org/2000/svg">
<path d="M2.5498 15C2.5498 8.09625 8.1448 2.5 15.0498 2.5C21.9523 2.5 27.5498 8.09625 27.5498 15C27.5498 21.9037 21.9523 27.5 15.0498 27.5C8.1448 27.5 2.5498 21.9037 2.5498 15Z" fill="#FC3F1D"/>
<path d="M16.6498 9.5825H15.4948C13.3773 9.5825 12.2636 10.655 12.2636 12.2363C12.2636 14.0238 13.0336 14.8613 14.6148 15.935L15.9211 16.815L12.1673 22.4237H9.3623L12.7311 17.4063C10.7936 16.0175 9.70605 14.6688 9.70605 12.3875C9.70605 9.5275 11.6998 7.575 15.4811 7.575H19.2348V22.41H16.6498V9.5825Z" fill="white"/>
</svg>
